HIERARCHY
ROOT pelvis
{
  OFFSET 0 100 0
  CHANNELS 6 Xposition Yposition Zposition Zrotation Xrotation Yrotation
  JOINT pelvis_right_femur
  {
    OFFSET -10.78128 -3.44521 -0.5502486
    CHANNELS 3 Zrotation Xrotation Yrotation
    JOINT right_femur_tibia
    {
      OFFSET -0.8047443 -44.0398 -0.1307829
      CHANNELS 3 Zrotation Xrotation Yrotation
      JOINT right_tibia_foot
      {
        OFFSET 3.006224 -47.83518 -5
        CHANNELS 3 Zrotation Xrotation Yrotation
        End Site
        {
          OFFSET 0 -5 15
        }
      }
    }
  }
  JOINT pelvis_left_femur
  {
    OFFSET 10.78128 -3.44521 -0.5502486
    CHANNELS 3 Zrotation Xrotation Yrotation
    JOINT left_femur_tibia
    {
      OFFSET 0.8047443 -44.0398 -0.1307829
      CHANNELS 3 Zrotation Xrotation Yrotation
      JOINT left_tibia_foot
      {
        OFFSET -4.370144 -48.10324 -4.275266
        CHANNELS 3 Zrotation Xrotation Yrotation
        End Site
        {
          OFFSET 0 -5 15
        }
      }
    }
  }
  JOINT pelvis_spine1
  {
    OFFSET 0 6.468898 -3.129235
    CHANNELS 3 Zrotation Xrotation Yrotation
    JOINT spine1
    {
      OFFSET 0 23.15396 4.99043
      CHANNELS 3 Zrotation Xrotation Yrotation
      JOINT spine2
      {
        OFFSET 0 20.79997 -5.064912
        CHANNELS 3 Zrotation Xrotation Yrotation
        JOINT neck
        {
          OFFSET 0 14.38658 9.616178
          CHANNELS 3 Zrotation Xrotation Yrotation
          End Site
          {
            OFFSET 0 20 0
          }
        }
      }
      JOINT right_manubrium
      {
        OFFSET -5.722621 16.35077 3.967754
        CHANNELS 3 Zrotation Xrotation Yrotation
        JOINT right_clavicle
        {
          OFFSET -13.16364 1.694482 -4.693211
          CHANNELS 3 Zrotation Xrotation Yrotation
          JOINT right_humerus
          {
            OFFSET -28.5034 -0.3100689 -2.792744
            CHANNELS 3 Zrotation Xrotation Yrotation
            JOINT right_radius
            {
              OFFSET -25.15693 0.02248979 -1.271978
              CHANNELS 3 Zrotation Xrotation Yrotation
              End Site
              {
                OFFSET -15 0 0
              }
            }
          }
        }
      }
      JOINT left_manubrium
      {
        OFFSET 5.722621 16.35077 3.967754
        CHANNELS 3 Zrotation Xrotation Yrotation
        JOINT left_clavicle
        {
          OFFSET 13.16364 1.694482 -4.693211
          CHANNELS 3 Zrotation Xrotation Yrotation
          JOINT left_humerus
          {
            OFFSET 29.39168 -1.063119 -2.237045
            CHANNELS 3 Zrotation Xrotation Yrotation
            JOINT left_radius
            {
              OFFSET 24.59957 -0.9528479 0.9047498
              CHANNELS 3 Zrotation Xrotation Yrotation
              End Site
              {
                OFFSET 15 -0 -0
              }
            }
          }
        }
      }
    }
  }
}
MOTION
Frames: 17
Frame Time: 0.0416666666667
0 103.5113 0 0.5081438 -0.4259735 0.3278637 3.91014 -17.93479 7.794052 -0 39.05494 -0 -6.472215 -13.81979 -1.947183 -7.209567 7.816166 -20.69851 -0 7.17492 -0 9.422803 -16.29963 24.77487 -3.172291 -2.807709 4.956674 2.214253 9.849585 -7.494039 1.096154 21.70725 6.913233 2.539847 -25.10867 9.740109 5.261303 -20.62655 11.61866 86.75241 35.28673 -18.24767 -0 0 16.09131 -7.342702 8.493099 4.92638 5.608052 -20.13482 -1.20941 -91.96547 23.6078 21.84191 0 0 -17.49398 11.77092 15.4042 0.6895013
0.4853451 103.3384 2.159321 0.3775383 0.1230791 0.6513212 4.20334 -19.83454 7.734368 -0 37.31848 -0 -6.43015 -13.18473 -1.878124 -7.174624 8.681801 -20.70712 -0 6.607905 -0 9.321582 -17.12935 24.7384 -3.215516 -2.678731 4.786608 2.384339 9.647994 -7.585367 1.125195 21.60179 7.078301 2.743536 -25.36571 9.85004 5.365302 -20.22457 11.55516 86.67552 35.56124 -18.56125 -0 0 15.65089 -7.230437 8.375819 4.83174 5.917764 -20.25466 -1.105852 -91.90241 23.77131 21.21538 0 0 -17.85742 11.86578 15.32757 0.5649693
0.9492394 102.9202 4.613884 0.09127576 0.767344 0.9984829 4.636135 -23.14669 7.039529 -0 33.60088 -0 -6.489145 -11.24998 -1.576177 -6.997498 10.16112 -20.08876 -0 5.304761 -0 9.160882 -18.57098 24.37052 -3.10006 -2.390472 4.449093 2.574894 9.462007 -7.661694 1.185156 21.43663 7.302184 2.992462 -25.73052 10.00324 5.047981 -19.7049 11.45922 86.96022 34.99232 -19.05543 -0 0 14.63177 -7.710952 8.192353 4.970382 6.55111 -20.74699 -1.131024 -91.3431 23.16396 19.70399 0 0 -18.83902 12.76768 15.07406 -0.5451923
1.390433 102.2407 7.347922 -0.2135333 1.504629 1.363571 5.08237 -26.39992 6.516872 -0 29.62031 -0 -6.434598 -9.627392 -1.380291 -6.78807 11.62278 -19.54752 -0 3.866224 -0 8.827459 -20.01959 23.94478 -3.003207 -2.118002 4.11882 2.810165 9.221618 -7.782834 1.239596 21.20365 7.515523 3.245626 -26.09662 10.13343 4.847329 -19.18344 11.35665 87.0902 34.65141 -19.52859 -0 0 13.78882 -8.084822 8.101384 5.1036 7.154641 -21.14193 -1.10338 -90.90931 22.78522 18.36484 0 0 -19.76553 13.25986 14.76824 -1.197202
1.802989 101.2887 10.45068 -0.5908058 2.290139 1.736501 5.61392 -29.68081 6.002923 -0 24.88173 -0 -6.339072 -7.913808 -1.248597 -6.472967 13.09809 -18.78771 -0 2.946481 -0 8.134313 -21.3486 23.14893 -2.825896 -1.84002 3.779366 3.088459 9.000045 -7.957965 1.284436 20.86798 7.700538 3.489649 -26.47777 10.20199 4.644054 -18.65075 11.27019 87.25247 34.26881 -20.09795 -0 0 12.91289 -8.563817 8.166325 5.317093 7.731627 -21.56552 -1.097172 -90.41395 22.33064 17.02661 0 0 -20.83551 13.53123 14.31371 -1.61875
2.184931 100.0942 13.96382 -1.01758 3.134587 2.108021 6.241042 -32.7722 5.673357 -0 19.92113 -0 -6.169471 -6.319758 -1.22538 -6.087625 14.49615 -17.96337 -0 2.691902 -0 7.103279 -22.43594 22.02974 -2.605733 -1.596136 3.465172 3.41109 8.801103 -8.199162 1.313557 20.42137 7.850377 3.72369 -26.87916 10.20521 4.552852 -18.13158 11.21188 87.36769 34.05587 -20.74227 -0 0 12.13975 -9.003076 8.413309 5.555599 8.208214 -21.93658 -1.085402 -89.96416 21.96206 15.90398 0 0 -21.89785 13.42441 13.75091 -1.609683
2.534477 98.74907 17.92632 -1.480735 3.958917 2.464003 6.992465 -35.33076 5.5971 -0 15.21963 -0 -5.982209 -4.881512 -1.324594 -5.639831 15.64739 -17.06772 -0 3.886239 -0 5.675828 -22.98599 20.49716 -2.326334 -1.407783 3.209289 3.762693 8.679006 -8.506229 1.312445 19.88412 7.944716 3.931495 -27.28263 10.11011 4.61951 -17.63831 11.21266 87.48078 34.07137 -21.49281 -0 0 11.44992 -9.371919 8.876757 5.80042 8.480176 -22.23657 -1.09657 -89.56816 21.69605 15.12391 0 0 -22.87584 12.90232 13.08597 -1.105431
2.851628 97.41518 22.34501 -1.945844 4.663782 2.787015 7.851848 -36.97353 5.818178 -0 11.4956 -0 -5.862132 -3.703316 -1.538078 -5.160893 16.32674 -16.15582 -0 7.186278 -0 3.896901 -22.72861 18.58453 -1.997544 -1.279235 3.039443 4.116727 8.664593 -8.855416 1.265539 19.32641 7.973665 4.100921 -27.65378 9.896388 4.899612 -17.16915 11.29764 87.60379 34.40459 -22.32735 -0 0 10.82792 -9.607495 9.534474 6.014736 8.440084 -22.41888 -1.156162 -89.26981 21.6281 14.8145 0 0 -23.62361 11.93879 12.37137 -0.04620683
3.137453 96.30358 27.19265 -2.347894 5.066026 3.05198 8.67568 -37.23483 6.19642 -0 9.4211 -0 -5.942799 -2.861334 -1.811836 -4.691152 16.2392 -15.22342 -0 13.08367 -0 1.89989 -21.43275 16.42468 -1.631599 -1.184906 2.972084 4.413806 8.779824 -9.180863 1.157702 18.89102 7.931042 4.209695 -27.90025 9.545823 5.361145 -16.71629 11.4799 87.78038 34.99974 -23.16577 -0 0 10.18612 -9.745839 10.28983 6.194825 8.008358 -22.4652 -1.314318 -89.06519 21.80723 14.9763 0 0 -24.03847 10.61147 11.68396 1.501327
3.393628 95.61903 32.40662 -2.599153 4.975036 3.228564 9.207906 -35.74099 6.441063 -0 9.291611 -0 -6.326696 -2.413571 -2.057923 -4.27277 15.11489 -14.23073 -0 21.37002 -0 -0.0791784 -19.08361 14.29695 -1.259449 -1.079062 3.012038 4.573465 9.012184 -9.383165 0.9887742 18.74722 7.821244 4.236269 -27.89374 9.065806 5.874258 -16.28172 11.7393 88.024 35.66402 -23.8398 -0 0 9.441321 -9.918301 10.97815 6.378388 7.202642 -22.38504 -1.603858 -88.91161 22.21078 15.45563 0 0 -24.09039 9.109774 11.1067 3.31968
3.621469 95.49485 37.90273 -2.628236 4.310856 3.290633 9.26725 -32.374 6.335655 -0 10.74108 -0 -6.98114 -2.392911 -2.201007 -3.925622 12.81267 -13.12382 -0 31.07084 -0 -1.782501 -15.92843 12.55668 -0.9229236 -0.9342561 3.177714 4.529681 9.328458 -9.37485 0.7845962 18.98058 7.655759 4.172896 -27.53898 8.502109 6.263581 -15.9041 12.02442 88.28001 36.16813 -24.14052 -0 0 8.612271 -10.28675 11.45333 6.623409 6.171803 -22.21687 -1.987787 -88.74862 22.67548 16.0195 0 0 -23.83367 7.727965 10.66268 5.044491
3.823127 95.95168 43.59843 -2.435182 3.220902 3.227907 8.931941 -27.42913 5.964425 -0 12.78871 -0 -7.681925 -2.828818 -2.226565 -3.617647 9.38772 -11.88291 -0 40.75937 -0 -3.050335 -12.41042 11.47584 -0.6571584 -0.7690442 3.514962 4.281206 9.694271 -9.142519 0.5893566 19.49066 7.448368 4.038328 -26.85988 7.926724 6.4321 -15.66613 12.28261 88.40592 36.42782 -23.91744 -0 0 7.90793 -10.9237 11.70091 6.965885 5.148279 -22.00452 -2.345569 -88.5609 22.94651 16.53365 0 0 -23.36762 6.733372 10.27002 6.33008
4.00473 96.88853 49.42971 -2.08819 1.981199 3.037827 8.425119 -21.48675 5.580934 -0 14.33257 -0 -8.122969 -3.752488 -2.17337 -3.2565 5.023704 -10.51261 -0 49.07677 -0 -3.894962 -8.992852 11.10658 -0.4710415 -0.6181296 4.064466 3.884989 10.08775 -8.743831 0.4381971 20.05491 7.206214 3.862476 -25.9681 7.389769 6.396896 -15.67246 12.49516 88.22579 36.48655 -23.11976 -0 0 7.660977 -11.81857 11.83814 7.42996 4.321978 -21.77398 -2.566644 -88.39805 22.8456 17.04526 0 0 -22.7994 6.175463 9.795225 7.084794
4.179678 98.09268 55.34543 -1.658759 0.7579793 2.712563 7.86947 -15.04652 5.314993 -0 14.72712 -0 -8.101659 -5.170503 -2.077098 -2.721566 -0.1075753 -9.014002 -0 54.87359 -0 -4.446108 -6.057812 11.34346 -0.3577578 -0.4731982 4.807729 3.390383 10.48104 -8.223769 0.3470365 20.51875 6.924878 3.659927 -24.93659 6.898146 6.188335 -16.01655 12.66835 87.58941 36.30602 -21.68923 -0 0 8.172964 -12.9935 11.97028 8.077916 3.765618 -21.50535 -2.645294 -88.35208 22.41373 17.69329 0 0 -22.15606 5.835113 9.18382 7.529815
4.374076 99.26327 61.29074 -1.18314 -0.4319113 2.250695 7.236747 -8.355607 5.120429 -0 13.9051 -0 -7.558555 -7.063089 -1.92467 -1.918565 -5.92198 -7.396654 -0 57.00481 -0 -4.820897 -3.943071 12.09275 -0.3309602 -0.2803557 5.670487 2.80513 10.80476 -7.562845 0.327522 20.86958 6.598734 3.431184 -23.76037 6.450548 5.784548 -16.75275 12.79034 86.37771 35.71982 -19.47253 -0 0 9.654278 -14.52725 12.08527 9.007256 3.484273 -21.11722 -2.637816 -88.54121 21.86941 18.59802 0 0 -21.30312 5.392756 8.50064 8.004975
4.634051 100.0558 67.21462 -0.681871 -1.551951 1.677355 6.457546 -1.642118 4.91552 -0 12.13241 -0 -6.483877 -9.355982 -1.653762 -0.8302118 -12.27303 -5.711085 -0 54.43209 -0 -5.052731 -2.966059 13.29688 -0.4316364 0.001125693 6.566343 2.131472 10.94896 -6.72793 0.3908622 21.14093 6.243626 3.185015 -22.44879 6.07276 5.166189 -17.86577 12.81639 84.55524 34.59667 -16.36972 -0 0 12.19616 -16.44702 12.08986 10.27494 3.484555 -20.50779 -2.568087 -89.06508 21.44238 19.80538 0 0 -20.054 4.631999 7.833419 8.746917
5.021519 100.1869 73.11526 -0.1869387 -2.469202 1.046688 5.521536 4.617084 4.668716 -0 9.992542 -0 -4.93002 -11.74086 -1.203101 0.4174137 -18.61901 -4.087026 -0 47.21244 -0 -5.133657 -3.233185 14.78649 -0.6818622 0.3359962 7.406113 1.415325 10.83276 -5.763757 0.5294154 21.33044 5.910024 2.951812 -21.11984 5.80757 4.392457 -19.20916 12.70379 82.3473 32.98654 -12.65822 -0 0 15.5651 -18.61354 11.90307 11.79734 3.740987 -19.64879 -2.429933 -89.90452 21.24957 21.23627 0 0 -18.3995 3.535708 7.216594 9.801034
